<svg id="Layer_1" data-name="Layer 1" xmlns="http://www.w3.org/2000/svg" viewBox="0 0 433.72 392.21"><defs><style>.cls-1{fill:#f2f2f2;}.cls-2{fill:#ccc;}.cls-3{fill:#3f456b;}.cls-4{fill:#eab896;}.cls-5{fill:#f4c7a8;}.cls-6{fill:#a06135;}.cls-7{fill:#b5764b;}.cls-8{opacity:0.5;isolation:isolate;}.cls-9{fill:#fff;}</style></defs><path class="cls-1" d="M91.55,135.55S64.68,208.09,56.62,242.47c97.79,5.91,402.19,6.28,402.19,6.28s-19.43-71.29-37-116.43Z" transform="translate(-39.4 -69.59)"/><path class="cls-2" d="M175,248.46,101.84,108.32A9.86,9.86,0,0,1,106,95l34.92-18.21A9.85,9.85,0,0,1,154.23,81l71.34,136.78" transform="translate(-39.4 -69.59)"/><path class="cls-1" d="M192.67,239.22,119.57,99.07c-2.51-4.82-2-10.08,1.23-11.75l23.1-12c3.19-1.67,7.81.89,10.33,5.72l71.34,136.77" transform="translate(-39.4 -69.59)"/><path class="cls-3" d="M175,254.57a6.1,6.1,0,0,1-5.42-3.28L96.43,111.14a16,16,0,0,1,6.77-21.53L138.12,71.4a16,16,0,0,1,21.52,6.77L231,214.94a6.11,6.11,0,1,1-10.84,5.65L148.81,83.82a3.73,3.73,0,0,0-5-1.58l-34.92,18.21a3.73,3.73,0,0,0-1.59,5l73.1,140.15a6.1,6.1,0,0,1-5.41,8.93Z" transform="translate(-39.4 -69.59)"/><path class="cls-4" d="M464.34,290l-.44.06H377.4c-2.64-33.73-7.06-61.73-8.89-72.59l81.69.07A633.51,633.51,0,0,1,464.34,290Z" transform="translate(-39.4 -69.59)"/><path class="cls-5" d="M392.31,290H48.08a634.41,634.41,0,0,1,14.36-72.88l321,.3C385.26,228.29,389.67,256.3,392.31,290Z" transform="translate(-39.4 -69.59)"/><path class="cls-6" d="M463.9,286.26s3.63,36.41,1.61,69.18c0,0-1.95,49.49-33.43,79.41-16,13.47-38.3,21.45-68.69,21.45H340.32c44.19-19.93,46.07-105.87,40.77-170Z" transform="translate(-39.4 -69.59)"/><path class="cls-5" d="M464.34,286.21c8,58.2,4.42,117.81-32.26,148.64,31.48-29.92,33.44-79.41,33.44-79.41,2-32.77-1.61-69.18-1.61-69.18Z" transform="translate(-39.4 -69.59)"/><path class="cls-7" d="M392.31,286.26c5.3,64.17,3.42,150.11-40.77,170H149.13c-27.11,0-47.79-6.3-63.3-17.16l-.2-.13a88.8,88.8,0,0,1-20.36-20.75,4.91,4.91,0,0,1-.31-.44c-22.28-33-23.65-82.75-16.88-131.55Z" transform="translate(-39.4 -69.59)"/><path class="cls-7" d="M363.39,456.3c30.4,0,52.7-8,68.69-21.45-13.64,13-32.82,22.28-59.79,22.28H349.58c.66-.25,1.31-.53,2-.83Z" transform="translate(-39.4 -69.59)"/><path class="cls-7" d="M149.13,456.29H351.54c-.65.3-1.3.58-2,.83H156s-38.19,5.17-70.2-18C101.34,450,122,456.29,149.13,456.29Z" transform="translate(-39.4 -69.59)"/><path class="cls-5" d="M85.63,439a81.11,81.11,0,0,1-20.37-20.75A89,89,0,0,0,85.63,439Z" transform="translate(-39.4 -69.59)"/><path class="cls-7" d="M48.08,286.26C41.31,335.07,42.67,384.83,65,417.82c-10.31-14.76-18.14-34.91-21-62.38,0,0-2.15-41.77,3.76-69.18Z" transform="translate(-39.4 -69.59)"/><g class="cls-8"><path class="cls-9" d="M139.18,133.37S43.25,371,149.13,457H249s-64.67-78-24.67-322.69Z" transform="translate(-39.4 -69.59)"/></g><polygon class="cls-6" points="346.34 388.4 86.1 388.4 49.4 369.4 385.6 369.4 346.34 388.4"/><path class="cls-3" d="M363.39,461.8l-214.27-.17c-40.67,0-70.53-13.89-88.73-41.27-24.51-36.88-27.58-96.92-9.1-178.45A754.72,754.72,0,0,1,86.08,131.06,5,5,0,0,1,90.69,128H421.82a5,5,0,0,1,4.61,3.06A755.59,755.59,0,0,1,461.23,242c18.48,81.58,15.41,141.66-9.12,178.55C433.91,447.92,404.06,461.8,363.39,461.8ZM94.06,138A752.39,752.39,0,0,0,61,244.27c-12.24,54.09-20.85,127.6,7.71,170.56,16.24,24.42,43.29,36.8,80.41,36.8l214.27.17c37.1,0,64.14-12.38,80.38-36.79,28.58-43,20-116.53,7.73-170.67A753.51,753.51,0,0,0,418.46,138Z" transform="translate(-39.4 -69.59)"/><path class="cls-3" d="M448,221H64a5,5,0,0,1,0-10H448a5,5,0,0,1,0,10Z" transform="translate(-39.4 -69.59)"/></svg>