<?xml version="1.0" encoding="UTF-8" standalone="no"?>
<svg
   xmlns:dc="http://purl.org/dc/elements/1.1/"
   xmlns:cc="http://creativecommons.org/ns#"
   xmlns:rdf="http://www.w3.org/1999/02/22-rdf-syntax-ns#"
   xmlns:svg="http://www.w3.org/2000/svg"
   xmlns="http://www.w3.org/2000/svg"
   id="svg4"
   xml:space="preserve"
   enable-background="new 0 0 200 200"
   viewBox="0 0 200 200"
   version="1.1"><metadata
     id="metadata10"><rdf:RDF><cc:Work
         rdf:about=""><dc:format>image/svg+xml</dc:format><dc:type
           rdf:resource="http://purl.org/dc/dcmitype/StillImage" /></cc:Work></rdf:RDF></metadata><defs
     id="defs8" /><path
     id="path2"
     d="m122.4123 32.150272c-0.21907 0.0033-0.51486 0.02613-0.65775 0.05004-0.14289 0.02446-0.40421 0.08618-0.58102 0.137332-0.17681 0.05115-0.46815 0.167356-0.64719 0.257984-0.17958 0.09063-5.37262 3.056888-11.54033 6.59138-6.16715 3.534492-11.315714 6.49686-11.440258 6.582484-0.1251 0.08562-0.412552 0.353616-0.6394 0.596032s-0.496508 0.581576-0.599924 0.753936c-0.10286 0.171804-0.259096 0.52264-0.3475 0.778956-0.0884 0.256316-0.18626 0.662752-0.217952 0.904056-0.03725 0.284672-0.05171 2.653788-0.04114 6.774304l0.01557 6.33562 4.336804 2.489212c2.38524 1.368872 4.3557 2.489768 4.3785 2.490324 0.0228 0.0011 0.0417-2.2379 0.0417-4.974532 0-2.737188 0.0133-4.9762 0.0295-4.9762 0.0161 0 3.06856 1.741948 6.7832 3.870316l6.75373 3.870316v7.277484c0 4.920044 0.0183 7.277484 0.0567 7.277484 0.0311 0 0.2591-0.101748 0.50596-0.225736 0.24687-0.123988 0.70334-0.310248 1.01359-0.413664s0.82733-0.24186 1.14814-0.307468c0.3336-0.06839 0.90572-0.131772 1.3344-0.149008 0.43368-0.01724 0.97356-0.0022 1.2788 0.03558 0.29079 0.03558 0.7139 0.10286 0.94075 0.149564 0.22685 0.0467 0.6394 0.160684 0.9174 0.25298 0.27745 0.0923 0.74893 0.288564 1.04695 0.435348l0.5421 0.267992v-14.588328l6.73705-3.862532c3.70519-2.124476 6.76986-3.870872 6.811-3.880324 0.0612-0.01501 0.074 0.839004 0.074 4.9623 0 2.738856 0.008 4.980092 0.0172 4.980092 0.009 0 0.87903-0.494284 1.93265-1.0981 1.05418-0.603816 3.01019-1.7236 4.34681-2.4881l2.43028-1.39 0.001-6.533 0.00055-6.533-0.11286-0.4726c-0.0623-0.260208-0.2224-0.69778-0.35696-0.973-0.13399-0.27522-0.38141-0.666644-0.54988-0.869584s-0.45814-0.485944-0.6444-0.628836c-0.18571-0.143448-5.34817-3.130836-11.4714-6.639752-6.12322-3.508916-11.27512-6.460164-11.44804-6.558576-0.17347-0.09841-0.46092-0.230184-0.6394-0.292456-0.17847-0.06227-0.50818-0.149564-0.7328-0.193488-0.22407-0.04337-0.58714-0.07673-0.8062-0.07284zm0.035 9.445328c0.0239 0 1.7375 0.971332 3.8086 2.158392 2.07055 1.187616 5.1102 2.929564 6.75485 3.871984 1.64465 0.941864 2.98349 1.71804 2.9746 1.724712-0.008 0.0067-3.05856 1.754736-6.7782 3.885328l-6.76263 3.873652-6.76374-3.87532c-5.27588-3.023528-6.74761-3.889776-6.69257-3.940372 0.0395-0.03558 2.18564-1.274352 4.76937-2.7522 2.58429-1.478404 5.58669-3.195888 6.672-3.81694 1.08587-0.621052 1.99326-1.129236 2.01772-1.129236zm-44.764092 15.740916c-0.295792 0.0033-0.648852 0.0278-0.78396 0.05449-0.135664 0.02613-0.373076 0.08952-0.5282 0.140668-0.15568 0.0506-0.407548 0.154568-0.560448 0.23074-0.1529 0.07673-5.25698 2.990724-11.3424 6.475732-6.08542 3.485564-11.260112 6.464056-11.499748 6.61918-0.241304 0.156236-0.601036 0.462036-0.8062 0.684436-0.204052 0.221844-0.45592 0.543768-0.559892 0.715572s-0.279112 0.567676-0.3892 0.880148l-0.20016 0.567118v13.396264l4.3368 2.486988 4.3368 2.486432 0.0278-5.001776 0.0278-5.001776 6.7832 3.887552 6.7832 3.887552 0.0139 7.288604c0.0078 4.00932 0.0228 7.28916 0.03392 7.28916 0.01056 0 0.279112-0.12232 0.597144-0.27188 0.318032-0.14957 0.816764-0.3475 1.108664-0.44091 0.291344-0.0928 0.754492-0.21406 1.0286-0.26966 0.390868-0.0795 0.750044-0.10064 1.665776-0.099 0.98968 0.002 1.250444 0.0206 1.710256 0.12288 0.298572 0.0667 0.771728 0.19793 1.051396 0.29134 0.279668 0.094 0.741704 0.28245 1.026376 0.41922 0.284116 0.13622 0.530424 0.24798 0.546548 0.24798 0.01612 0 0.03614-3.28262 0.04392-7.294164l0.0139-7.294164 6.7554-3.870872 6.7554-3.870316 0.01446 4.998996c0.01112 3.960944 0.02836 4.993436 0.0834 4.971196 0.03781-0.01557 2.008272-1.1398 4.37794-2.498108l4.309-2.470308v-13.22443l-0.12788-0.4448c-0.0706-0.24464-0.22574-0.64496-0.34583-0.8896-0.11954-0.24464-0.36529-0.621608-0.54599-0.837892s-0.47816-0.505404-0.66053-0.642736c-0.18237-0.136776-5.43323-3.173648-11.66877-6.747616-6.23554-3.574524-11.50364-6.568584-11.706024-6.654764-0.20294-0.08562-0.548772-0.193488-0.768392-0.239636-0.21962-0.04615-0.641624-0.08118-0.937972-0.07784zm0.38364 9.607124c0.200716 0.110088 3.24704 1.85148 6.768188 3.86976 3.521704 2.01828 6.402896 3.681832 6.402896 3.6974 0 0.01501-3.020748 1.758628-6.712588 3.873652-3.692396 2.115024-6.73872 3.854192-6.7693 3.8642-0.03114 0.01001-3.089692-1.719708-6.7971-3.844184-3.707408-2.125032-6.740944-3.876432-6.740944-3.893112s1.495084-0.88682 3.3221-1.93488c1.827016-1.047504 4.861108-2.78834 6.7415-3.868648l3.4194-1.964348zm89.205752-9.589332c-0.5788-0.01835-0.80064-0.0022-1.112 0.07951-0.21406 0.05671-0.51597 0.154012-0.67054 0.21684-0.15456 0.06283-1.04305 0.550996-1.9738 1.084756-0.93074 0.53376-5.98311 3.428852-11.22786 6.43292-5.24419 3.004068-9.6605 5.539984-9.8134 5.63506-0.1529 0.09508-0.44925 0.33638-0.6583 0.53654-0.20962 0.199604-0.46538 0.47816-0.56879 0.619384-0.10397 0.140668-0.26355 0.406992-0.35473 0.591028-0.0917 0.184592-0.23519 0.557112-0.3197 0.82844l-0.15346 0.492616-0.0178 6.596384-0.0172 6.596384 4.35014 2.494216c2.39247 1.371652 4.37016 2.502556 4.39462 2.512564 0.0245 0.01001 0.0506-2.232896 0.0584-4.985096l0.0145-5.003444 6.7971 3.895336 6.7971 3.895892v7.75342c0 6.778752-0.01 7.749522-0.0812 7.722282-0.045-0.0172-2.07777-1.17372-4.5175-2.56983-2.44028-1.39612-4.46023-2.56094-4.48914-2.58763-0.0289-0.0272-0.0728-0.0495-0.0973-0.0495s-0.0434 2.2707-0.0423 5.0457l0.003 5.0457 5.58892 3.197c3.07356 1.75807 5.74348 3.27818 5.93252 3.3777 0.18959 0.099 0.54432 0.24742 0.78896 0.3286 0.39309 0.13121 0.53543 0.149 1.2232 0.1529 0.58269 0.004 0.86903-0.02 1.1398-0.0934 0.19905-0.0545 0.56156-0.19405 0.8062-0.31136 0.24464-0.11676 5.41155-3.05856 11.4814-6.53689 6.07041-3.47834 11.18728-6.42125 11.37131-6.53968 0.18404-0.11842 0.46871-0.34694 0.63273-0.50762 0.16402-0.16069 0.39476-0.41923 0.51208-0.57491 0.11731-0.15568 0.31136-0.49373 0.43145-0.75227 0.11954-0.25798 0.25799-0.6494 0.30691-0.86958l0.0895-0.39976v-26.787518l-0.11064-0.439796c-0.0606-0.24186-0.22407-0.66998-0.36252-0.951872-0.19237-0.390312-0.35695-0.62272-0.69555-0.980228-0.24353-0.257428-0.59937-0.568788-0.79063-0.69222-0.19127-0.123432-5.31425-3.070232-11.38466-6.548568-6.06985-3.478892-11.22397-6.418464-11.4536-6.533556-0.22907-0.115092-0.56712-0.2502-0.7506-0.301352-0.1996-0.05504-0.62383-0.101192-1.0564-0.115092zm0.14456 9.53262c0.14011 0.08006 3.18532 1.822012 6.76652 3.870872s6.51132 3.737432 6.51132 3.753c0 0.01501-3.04077 1.766412-6.75763 3.892-3.71686 2.125032-6.77486 3.859752-6.79487 3.854748-0.02-0.005-3.05133-1.7375-6.7365-3.849744-3.68461-2.111688-6.6998-3.865868-6.6998-3.897004 0-0.03169 3.02742-1.792544 6.7276-3.913684l6.7276-3.85586zm17.71694 15.188252c0.008-0.0017 0.0133 3.493904 0.0133 7.76732l-0.001 7.7701-6.71648 3.84808c-3.69406 2.11669-6.75873 3.8642-6.81044 3.88421l-0.0934 0.0356v-15.50463l6.7971-3.898672c3.73854-2.144492 6.80322-3.90034 6.811-3.902008zm-72.558-4.985652-3.7113-2.127256v4.78438c0 4.191684 0.01 4.779932 0.0817 4.752688 0.045-0.01724 1.90319-1.073636 4.1283-2.347432 2.22567-1.274352 4.06714-2.3352 4.09216-2.358552 0.025-0.0228-0.16235-0.162352-0.417-0.309136-0.25465-0.14734-2.13281-1.224868-4.17389-2.394692zm23.46376 0.25576-0.0145-2.383572-4.18668 2.398028c-2.68326 1.53734-4.16055 2.41304-4.1144 2.440284 0.04 0.02391 1.92376 1.105328 4.18668 2.404144l4.1144 2.361332 0.0145-2.4186c0.008-1.329952 0.008-3.490568 0-4.801616zm-103.086852 5.17636c-0.31136 0.0022-0.716128 0.03725-0.899608 0.07728s-0.484276 0.133996-0.667756 0.2085c-0.184036 0.07506-5.413216 3.045768-11.6204 6.6025-6.20774 3.556736-11.423576 6.557468-11.591488 6.667556-0.167356 0.110644-0.451472 0.350836-0.63106 0.534316-0.179032 0.18348-0.445356 0.515412-0.591584 0.737812-0.160128 0.244084-0.335824 0.614936-0.441464 0.934636-0.121764 0.365848-0.193488 0.7228-0.231852 1.152588-0.03614 0.401988-0.048928 5.195824-0.036696 13.549164l0.018348 12.927 0.101192 0.3892c0.0556 0.21406 0.199048 0.60048 0.318588 0.85846 0.120096 0.25854 0.31414 0.59604 0.4309 0.7506 0.117316 0.15457 0.349168 0.41311 0.515412 0.57435s0.388644 0.35139 0.49484 0.42312c0.10564 0.0717 5.23474 3.02075 11.398556 6.55357 6.163816 3.53338 11.360748 6.50131 11.54812 6.59583 0.187928 0.0951 0.53654 0.22851 0.775064 0.2969 0.349724 0.10119 0.573236 0.1251 1.15648 0.1251 0.58658 0 0.805644-0.0239 1.163708-0.12677 0.242416-0.0701 0.655524-0.23852 0.9174-0.3753 0.261876-0.13622 2.953472-1.66855 5.980892-3.40494l5.5044-3.15641 0.01446-5.04403c0.0078-2.77389 0.0039-5.04348-0.0083-5.04348-0.01168 0-2.05442 1.16538-4.539184 2.5904-2.484764 1.42448-4.551416 2.6032-4.593116 2.61876-0.06338 0.0245-0.07562-1.21096-0.07562-7.72784v-7.7562l6.4357-3.68739c3.539496-2.02773 6.598608-3.78191 6.7971-3.89756l0.3614-0.21128 0.0278 5.00177 0.0278 5.00178 4.38128-2.50923 4.380724-2.50923-0.01779-6.56469-0.01835-6.56469-0.122876-0.4448c-0.06783-0.24464-0.239636-0.682768-0.382528-0.973-0.225736-0.459256-0.333044-0.60048-0.821212-1.0842l-0.56156-0.556-1.723044-0.980784c-0.947464-0.53932-6.076564-3.476668-11.397484-6.527996-5.32092-3.050772-9.840644-5.617824-10.043028-5.70456-0.20294-0.08618-0.548772-0.195156-0.768392-0.241304-0.21962-0.04615-0.653856-0.08173-0.965772-0.07951zm0.356396 9.576544c0.171804 0.0973 3.217016 1.84036 6.767076 3.874208 4.80384 2.751644 6.437368 3.712968 6.387884 3.75856-0.03614 0.03336-3.04966 1.76808-6.695352 3.85475-3.646248 2.08722-6.673668 3.80582-6.7276 3.81916-0.06005 0.015-2.727736-1.48285-6.798212-3.81694-3.684612-2.1128-6.717592-3.859194-6.739276-3.880322-0.02168-0.02168 0.315808-0.240748 0.7506-0.487056 0.434236-0.246308 2.966816-1.695244 5.627276-3.220352s5.349832-3.066896 5.975888-3.426072l1.138688-0.652744zm-17.949904 15.346708c0.191264 0.10787 3.24982 1.85982 6.7971 3.89367l6.4496 3.69796 0.0139 7.76398c0.0095 5.05682-0.005 7.75787-0.04003 7.74564-0.03002-0.01-3.09414-1.75752-6.808776-3.88255l-6.754288-3.8642-0.0028-7.7751-0.0022-7.77455zm107.0439-24.924364c-0.42089 0.0022-0.74115 0.0367-1.02749 0.111756-0.22851 0.06005-0.56656 0.179588-0.7506 0.26688-0.18403 0.08674-4.85054 2.74664-10.37051 5.910836-5.51941 3.164196-10.614596 6.084864-11.321272 6.490744-0.707232 0.40588-1.42614 0.848456-1.597388 0.982452-0.170692 0.134552-0.44758 0.410328-0.614936 0.612712-0.167356 0.20294-0.390312 0.534872-0.495396 0.737256-0.105084 0.20294-0.243528 0.53098-0.308024 0.730028-0.0645 0.198492-0.14178 0.53654-0.17236 0.7506-0.03447 0.240192-0.05616 2.82893-0.05671 6.7643l-0.0011 6.37509 4.378496 2.50756 4.3785 2.50756 0.0278-4.99733 0.0278-4.99788 6.76652 3.87143 6.76708 3.87087 0.002 7.77232 0.003 7.77177-0.1251-0.0662c-0.0689-0.0361-1.05084-0.59603-2.1823-1.24489-1.13146-0.64829-3.08302-1.76696-4.3368-2.48532-1.25378-0.71835-2.33576-1.33606-2.4047-1.3722l-0.1251-0.0656 0.002 5.04737 0.002 5.04792 5.78129 3.30764c3.1792 1.81924 5.9492 3.37492 6.15547 3.45721 0.20572 0.0817 0.58658 0.19182 0.84568 0.24409 0.35361 0.0717 0.61104 0.0867 1.0286 0.0612 0.30635-0.0189 0.70612-0.0745 0.88849-0.12399 0.18236-0.0489 0.4826-0.15791 0.6672-0.24242 0.18459-0.0845 5.38986-3.05021 11.56702-6.59027 6.17716-3.5406 11.38466-6.54634 11.57258-6.67922 0.18793-0.13344 0.48428-0.39921 0.65831-0.59103 0.17458-0.19238 0.41366-0.51208 0.53153-0.71057 0.11788-0.19905 0.29691-0.59937 0.3981-0.8896l0.18348-0.5282v-27.244l-0.20016-0.56712c-0.11009-0.312472-0.28523-0.709456-0.3892-0.882928s-0.35973-0.499288-0.56823-0.723912-0.54655-0.518748-0.7506-0.6533c-0.20405-0.135108-5.43768-3.145292-11.63041-6.689792-6.19217-3.5445-11.3563-6.48852-11.47473-6.542452-0.11898-0.05338-0.41922-0.146228-0.6672-0.20572-0.31191-0.0745-0.64051-0.107308-1.06307-0.10564zm0.0156 9.399736c0.008-0.0039 2.74831 1.55958 6.0882 3.473888s6.37899 3.656812 6.75373 3.871984 0.6811 0.406436 0.68054 0.42534c0 0.01835-3.02352 1.766416-6.7187 3.884216-3.69573 2.1178-6.74539 3.8503-6.7782 3.8503-0.0328 0-3.05744-1.71693-6.72204-3.81527-3.66459-2.09835-6.69424-3.844186-6.73204-3.87977-0.0534-0.04948 0.99524-0.674428 4.63537-2.759428 2.58762-1.482296 5.62116-3.223688 6.74094-3.86976 1.12034-0.646628 2.04386-1.178164 2.0522-1.1815zm17.98493 15.344488c0.0233-0.003 0.0356 3.49001 0.0278 7.76176l-0.0139 7.76732-6.7276 3.85808c-3.70018 2.12226-6.75874 3.87143-6.7971 3.887-0.0562 0.0228-0.0673-1.53122-0.0556-7.74063l0.0139-7.76899 6.7554-3.87921c3.71519-2.13393 6.7743-3.88199 6.7971-3.88533zm-76.268774-7.12236c-0.01557 0-0.02836 2.15339-0.02836 4.78549 0 3.94149 0.01279 4.78271 0.07339 4.7677 0.04059-0.009 1.928208-1.08142 4.194464-2.38079 2.266812-1.29993 4.103836-2.38024 4.082708-2.40081-0.02113-0.0211-1.89596-1.1031-4.166108-2.4047-2.270148-1.30215-4.139976-2.36689-4.1561-2.36689zm27.1467 4.76714-0.01446-4.75824-4.10884 2.35632c-2.26014 1.29548-4.129968 2.37635-4.155544 2.40192-0.02502 0.025 1.8209 1.11534 4.102724 2.42305 2.281268 1.30771 4.157768 2.36801 4.168888 2.35633 0.01168-0.0117 0.01501-2.16228 0.0072-4.77938zm-13.302856 2.77778c-0.24464-0.0161-0.60604-0.007-0.802864 0.0195-0.196824 0.0267-0.534316 0.10175-0.750044 0.16736-0.215172 0.0656-0.482052 0.16513-0.593252 0.22184-0.110644 0.0562-5.252532 2.99684-11.426356 6.53467-6.173824 3.53727-11.3563 6.51854-11.516984 6.62474-0.160684 0.10619-0.49484 0.40921-0.74226 0.67387-0.344164 0.36807-0.507072 0.59826-0.691664 0.98134-0.132884 0.27522-0.28634 0.66275-0.34194 0.8618l-0.100636 0.36136v27.1884l0.179032 0.51152c0.09786 0.28189 0.254092 0.6444 0.345832 0.8062 0.0923 0.16235 0.281336 0.43868 0.420336 0.61494 0.139 0.17625 0.40866 0.44758 0.598812 0.60381 0.215728 0.17625 4.6287 2.73719 11.682116 6.77931 6.234428 3.57286 11.471392 6.56024 11.63708 6.63864 0.165688 0.0789 0.481496 0.19349 0.701672 0.2552 0.220176 0.0617 0.638288 0.12677 0.92852 0.14456 0.411996 0.0245 0.648852 0.007 1.076972-0.0823 0.301352-0.0628 0.726692-0.19905 0.9452-0.30247 0.217952-0.10397 5.388196-3.04855 11.488628-6.54412 6.100988-3.49557 11.25789-6.46239 11.46083-6.59249s0.50763-0.3753 0.67721-0.54488c0.16958-0.17014 0.40699-0.4537 0.52708-0.63106 0.1201-0.17736 0.27133-0.42701 0.33638-0.55489 0.0651-0.12788 0.18738-0.45314 0.27189-0.7228l0.15401-0.49039v-26.966l-0.10342-0.3892c-0.0567-0.21406-0.19904-0.59492-0.3158-0.84679-0.11621-0.25131-0.32304-0.60159-0.45926-0.7784-0.13566-0.17625-0.37308-0.43868-0.52709-0.58213-0.15401-0.144-0.41366-0.34694-0.57713-0.45092-0.16346-0.10397-5.263092-3.03631-11.3335-6.51632-6.069852-3.48-11.223972-6.42291-11.4536-6.54022-0.229072-0.11732-0.604372-0.26021-0.834-0.31859-0.229072-0.0578-0.61716-0.11899-0.8618-0.13511zm-0.261876 9.41419c0.0089-0.00055 3.056332 1.74139 6.772636 3.87143 5.372072 3.07857 6.742056 3.88588 6.684232 3.9387-0.04059 0.0361-3.061336 1.77642-6.713144 3.86643-3.651808 2.09-6.68034 3.80193-6.729824 3.80359-0.04893 0.002-3.123052-1.73416-6.831016-3.85864l-6.7415-3.86142 0.127324-0.0678c0.0695-0.0373 3.116936-1.78309 6.770968-3.87921 3.654588-2.09668 6.651428-3.81194 6.660324-3.81305zm-17.948236 15.35394c0.03058 0.01 3.094696 1.75752 6.809332 3.88255l6.753732 3.8642 0.0022 7.77177 0.0022 7.77121-0.1529-0.0806c-0.08396-0.0445-3.143068-1.79532-6.7971-3.89033l-6.6442-3.80971-0.0139-7.76399c-0.0095-5.10408 0.0044-7.75731 0.04059-7.74508zm35.904812-0.008c0.0078-0.00055 0.01279 3.49557 0.01168 7.76899l-0.0017 7.7701-6.457384 3.6974c-3.551172 2.03329-6.603056 3.78024-6.780976 3.88144l-0.324148 0.18403 0.000556-7.77343 0.0011-7.77344 2.403588-1.37388c1.322168-0.75616 4.368492-2.50033 6.768744-3.87754 2.400808-1.37666 4.370716-2.50311 4.3785-2.50367z"
     fill="#FFFFFF" /></svg>